# Blender 4.2.0
# www.blender.org
o Sphere
v 0.000000 2.386105 -2.951417
v -0.000000 1.641110 -1.740495
v 0.000000 0.000000 -1.000000
v 0.331414 2.576870 -2.936573
v 0.612372 1.940689 -1.552739
v 0.800103 1.184928 -0.821212
v 0.866025 0.000000 -0.500000
v 0.331414 2.958400 -2.906885
v 0.612372 2.539848 -1.177227
v 0.800103 1.490301 0.050741
v 0.866025 0.000000 0.500000
v -0.000000 3.149165 -2.892040
v -0.000000 2.839427 -0.989471
v -0.000000 1.642988 0.486717
v -0.000000 0.000000 1.000000
v 0.000000 3.124244 -4.364283
v -0.331414 2.958400 -2.906885
v -0.612373 2.539848 -1.177227
v -0.800103 1.490301 0.050740
v -0.866026 0.000000 0.500000
v -0.331414 2.576870 -2.936573
v -0.612372 1.940689 -1.552739
v -0.800103 1.184928 -0.821212
v -0.866025 0.000000 -0.500000
v 0.000000 1.032241 -1.257188
v 0.000000 -2.386105 -2.951417
v -0.000000 -1.641110 -1.740495
v 0.331414 -2.576870 -2.936573
v 0.612372 -1.940689 -1.552739
v 0.800103 -1.184928 -0.821212
v 0.331414 -2.958400 -2.906885
v 0.612372 -2.539848 -1.177227
v 0.800103 -1.490301 0.050741
v -0.000000 -3.149165 -2.892040
v -0.000000 -2.839427 -0.989471
v -0.000000 -1.642988 0.486717
v 0.000000 -3.124244 -4.364283
v -0.331414 -2.958400 -2.906885
v -0.612373 -2.539848 -1.177227
v -0.800103 -1.490301 0.050740
v -0.331414 -2.576870 -2.936573
v -0.612372 -1.940689 -1.552739
v -0.800103 -1.184928 -0.821212
v 0.000000 -1.032241 -1.257188
vn 0.4785 -0.5462 -0.6875
vn 0.4689 -0.7828 -0.4090
vn 0.4936 -0.2058 -0.8450
vn 0.4858 -0.7487 -0.4511
vn 0.9989 0.0470 -0.0077
vn 0.9856 0.0645 -0.1560
vn 0.9898 0.1152 -0.0835
vn 0.9754 0.0171 -0.2199
vn 0.4645 0.6968 0.5465
vn 0.4983 0.8669 -0.0147
vn 0.4906 0.2653 0.8300
vn 0.4797 0.8667 0.1367
vn -0.4645 0.6968 0.5465
vn -0.4983 0.8669 -0.0147
vn -0.4906 0.2653 0.8300
vn -0.4797 0.8667 0.1367
vn -0.9989 0.0470 -0.0077
vn -0.9856 0.0645 -0.1560
vn -0.9898 0.1152 -0.0835
vn -0.9754 0.0171 -0.2199
vn -0.4936 -0.2058 -0.8450
vn -0.4858 -0.7487 -0.4511
vn -0.4785 -0.5462 -0.6875
vn -0.4689 -0.7828 -0.4090
vn 0.4785 0.5462 -0.6875
vn 0.4689 0.7828 -0.4090
vn 0.4936 0.2058 -0.8450
vn 0.4858 0.7487 -0.4511
vn 0.9989 -0.0470 -0.0077
vn 0.9856 -0.0645 -0.1560
vn 0.9898 -0.1152 -0.0835
vn 0.9754 -0.0171 -0.2199
vn 0.4645 -0.6968 0.5465
vn 0.4983 -0.8669 -0.0147
vn 0.4906 -0.2653 0.8300
vn 0.4797 -0.8667 0.1367
vn -0.4645 -0.6968 0.5465
vn -0.4983 -0.8669 -0.0147
vn -0.4906 -0.2653 0.8300
vn -0.4797 -0.8667 0.1367
vn -0.9989 -0.0470 -0.0077
vn -0.9856 -0.0645 -0.1560
vn -0.9898 -0.1152 -0.0835
vn -0.9754 -0.0171 -0.2199
vn -0.4936 0.2058 -0.8450
vn -0.4858 0.7487 -0.4511
vn -0.4785 0.5462 -0.6875
vn -0.4689 0.7828 -0.4090
vt 0.666667 0.625000
vt 0.666667 0.750000
vt 0.500000 0.750000
vt 0.500000 0.625000
vt 0.666667 0.875000
vt 0.583333 1.000000
vt 0.500000 0.875000
vt 0.666667 0.500000
vt 0.500000 0.500000
vt 0.333333 0.625000
vt 0.333333 0.500000
vt 0.333333 0.875000
vt 0.333333 0.750000
vt 0.416667 1.000000
vt 0.166667 0.750000
vt 0.166667 0.625000
vt 0.250000 1.000000
vt 0.166667 0.875000
vt 0.166667 0.500000
vt 0.000000 0.750000
vt 0.000000 0.625000
vt 0.083333 1.000000
vt 0.000000 0.875000
vt 0.000000 0.500000
vt 1.000000 0.500000
vt 1.000000 0.625000
vt 0.833333 0.625000
vt 0.833333 0.500000
vt 1.000000 0.750000
vt 1.000000 0.875000
vt 0.833333 0.875000
vt 0.833333 0.750000
vt 0.916667 1.000000
vt 0.750000 1.000000
s 0
f 25/1/1 2/2/1 5/3/1 6/4/1
f 1/5/2 16/6/2 4/7/2
f 3/8/3 25/1/3 6/4/3 7/9/3
f 2/2/4 1/5/4 4/7/4 5/3/4
f 7/9/5 6/4/5 10/10/5 11/11/5
f 5/3/6 4/7/6 8/12/6 9/13/6
f 6/4/7 5/3/7 9/13/7 10/10/7
f 4/7/8 16/14/8 8/12/8
f 10/10/9 9/13/9 13/15/9 14/16/9
f 8/12/10 16/17/10 12/18/10
f 11/11/11 10/10/11 14/16/11 15/19/11
f 9/13/12 8/12/12 12/18/12 13/15/12
f 14/16/13 13/15/13 18/20/13 19/21/13
f 12/18/14 16/22/14 17/23/14
f 15/19/15 14/16/15 19/21/15 20/24/15
f 13/15/16 12/18/16 17/23/16 18/20/16
f 20/25/17 19/26/17 23/27/17 24/28/17
f 18/29/18 17/30/18 21/31/18 22/32/18
f 19/26/19 18/29/19 22/32/19 23/27/19
f 17/30/20 16/33/20 21/31/20
f 24/28/21 23/27/21 25/1/21 3/8/21
f 22/32/22 21/31/22 1/5/22 2/2/22
f 23/27/23 22/32/23 2/2/23 25/1/23
f 21/31/24 16/34/24 1/5/24
f 44/1/25 30/4/25 29/3/25 27/2/25
f 26/5/26 28/7/26 37/6/26
f 3/8/27 7/9/27 30/4/27 44/1/27
f 27/2/28 29/3/28 28/7/28 26/5/28
f 7/9/29 11/11/29 33/10/29 30/4/29
f 29/3/30 32/13/30 31/12/30 28/7/30
f 30/4/31 33/10/31 32/13/31 29/3/31
f 28/7/32 31/12/32 37/14/32
f 33/10/33 36/16/33 35/15/33 32/13/33
f 31/12/34 34/18/34 37/17/34
f 11/11/35 15/19/35 36/16/35 33/10/35
f 32/13/36 35/15/36 34/18/36 31/12/36
f 36/16/37 40/21/37 39/20/37 35/15/37
f 34/18/38 38/23/38 37/22/38
f 15/19/39 20/24/39 40/21/39 36/16/39
f 35/15/40 39/20/40 38/23/40 34/18/40
f 20/25/41 24/28/41 43/27/41 40/26/41
f 39/29/42 42/32/42 41/31/42 38/30/42
f 40/26/43 43/27/43 42/32/43 39/29/43
f 38/30/44 41/31/44 37/33/44
f 24/28/45 3/8/45 44/1/45 43/27/45
f 42/32/46 27/2/46 26/5/46 41/31/46
f 43/27/47 44/1/47 27/2/47 42/32/47
f 41/31/48 26/5/48 37/34/48
