# Blender 4.2.0
# www.blender.org
o Sphere
v 0.000000 0.707107 -0.707107
v 0.224936 0.923880 -0.309597
v 0.415627 0.707107 -0.572061
v 0.543043 0.382683 -0.747434
v 0.587785 -0.000000 -0.809017
v 0.543043 -0.382683 -0.747434
v 0.415627 -0.707107 -0.572061
v 0.224936 -0.923880 -0.309597
v 0.363954 0.923880 -0.118256
v 0.672498 0.707107 -0.218508
v 0.878662 0.382683 -0.285494
v 0.951057 -0.000000 -0.309017
v 0.878662 -0.382683 -0.285494
v 0.672498 -0.707107 -0.218508
v 0.363954 -0.923880 -0.118256
v 0.363954 0.923880 0.118256
v 0.672498 0.707107 0.218508
v 0.878662 0.382683 0.285494
v 0.951057 0.000000 0.309017
v 0.878662 -0.382683 0.285494
v 0.672498 -0.707107 0.218508
v 0.363954 -0.923880 0.118256
v 0.224936 0.923880 0.309597
v 0.415627 0.707107 0.572061
v 0.543043 0.382683 0.747434
v 0.587785 0.000000 0.809017
v 0.543043 -0.382683 0.747434
v 0.415627 -0.707107 0.572061
v 0.224936 -0.923880 0.309597
v 0.000000 0.923880 0.382684
v 0.000000 0.707107 0.707107
v 0.000000 0.382683 0.923879
v 0.000000 0.000000 1.000000
v 0.000000 -0.382683 0.923879
v 0.000000 -0.707107 0.707107
v 0.000000 -0.923880 0.382684
v -0.224936 0.923880 0.309597
v -0.415627 0.707107 0.572061
v -0.543043 0.382683 0.747434
v -0.587785 0.000000 0.809017
v -0.543043 -0.382683 0.747434
v -0.415627 -0.707107 0.572061
v -0.224936 -0.923880 0.309597
v -0.363954 0.923880 0.118256
v -0.672498 0.707107 0.218508
v -0.878662 0.382683 0.285495
v -0.951057 0.000000 0.309017
v -0.878662 -0.382683 0.285495
v -0.672498 -0.707107 0.218508
v -0.363954 -0.923880 0.118256
v 0.000000 -1.000000 0.000000
v -0.363954 0.923880 -0.118256
v -0.672498 0.707107 -0.218508
v -0.878662 0.382683 -0.285494
v -0.951057 -0.000000 -0.309017
v -0.878662 -0.382683 -0.285494
v -0.672498 -0.707107 -0.218508
v -0.363954 -0.923880 -0.118256
v 0.000000 1.000000 -0.000000
v -0.224936 0.923880 -0.309597
v -0.415627 0.707107 -0.572061
v -0.543043 0.382683 -0.747434
v -0.587785 -0.000000 -0.809017
v -0.543043 -0.382683 -0.747434
v -0.415627 -0.707107 -0.572061
v -0.224936 -0.923880 -0.309597
v 0.000000 0.923880 -0.382684
v 0.000000 0.382683 -0.923880
v 0.000000 -0.000000 -1.000000
v 0.000000 -0.382683 -0.923880
v 0.000000 -0.707107 -0.707107
v 0.000000 -0.923880 -0.382684
vn -0.0000 -0.6883 -0.7254
vn -0.0000 -0.3697 -0.9291
vn 0.5461 -0.3697 -0.7517
vn 0.4264 -0.6883 -0.5869
vn -0.0000 -0.0000 -1.0000
vn -0.0000 0.3697 -0.9291
vn 0.5461 0.3697 -0.7517
vn 0.5878 -0.0000 -0.8090
vn -0.0000 0.6883 -0.7254
vn -0.0000 0.9099 -0.4149
vn 0.2439 0.9099 -0.3357
vn 0.4264 0.6883 -0.5869
vn -0.0000 -0.9099 -0.4149
vn 0.2439 -0.9099 -0.3357
vn -0.0000 1.0000 -0.0000
vn -0.0000 -1.0000 -0.0000
vn 0.6899 -0.6883 -0.2242
vn 0.3946 -0.9099 -0.1282
vn 0.9511 -0.0000 -0.3090
vn 0.8837 -0.3697 -0.2871
vn 0.6899 0.6883 -0.2242
vn 0.8837 0.3697 -0.2871
vn 0.3946 0.9099 -0.1282
vn 0.6899 0.6883 0.2242
vn 0.8837 0.3697 0.2871
vn 0.3946 0.9099 0.1282
vn 0.3946 -0.9099 0.1282
vn 0.8837 -0.3697 0.2871
vn 0.6899 -0.6883 0.2242
vn 0.9511 -0.0000 0.3090
vn 0.2439 -0.9099 0.3357
vn 0.5461 -0.3697 0.7517
vn 0.4264 -0.6883 0.5869
vn 0.5461 0.3697 0.7517
vn 0.5878 -0.0000 0.8090
vn 0.2439 0.9099 0.3357
vn 0.4264 0.6883 0.5869
vn -0.0000 0.9099 0.4149
vn -0.0000 0.6883 0.7254
vn -0.0000 -0.6883 0.7254
vn -0.0000 -0.9099 0.4149
vn -0.0000 -0.0000 1.0000
vn -0.0000 -0.3697 0.9291
vn -0.0000 0.3697 0.9291
vn -0.4264 -0.6883 0.5869
vn -0.2439 -0.9099 0.3357
vn -0.5878 -0.0000 0.8090
vn -0.5461 -0.3697 0.7517
vn -0.4264 0.6883 0.5869
vn -0.5461 0.3697 0.7517
vn -0.2439 0.9099 0.3357
vn -0.3946 0.9099 0.1282
vn -0.3946 -0.9099 0.1282
vn -0.8837 -0.3697 0.2871
vn -0.6899 -0.6883 0.2242
vn -0.8837 0.3697 0.2871
vn -0.9511 -0.0000 0.3090
vn -0.6899 0.6883 0.2242
vn -0.8837 -0.3697 -0.2871
vn -0.6899 -0.6883 -0.2242
vn -0.8837 0.3697 -0.2871
vn -0.9511 -0.0000 -0.3090
vn -0.3946 0.9099 -0.1282
vn -0.6899 0.6883 -0.2242
vn -0.3946 -0.9099 -0.1282
vn -0.4264 -0.6883 -0.5869
vn -0.2439 -0.9099 -0.3357
vn -0.5878 -0.0000 -0.8090
vn -0.5461 -0.3697 -0.7517
vn -0.4264 0.6883 -0.5869
vn -0.5461 0.3697 -0.7517
vn -0.2439 0.9099 -0.3357
vt 0.700000 0.250000
vt 0.700000 0.375000
vt 0.600000 0.375000
vt 0.600000 0.250000
vt 0.700000 0.500000
vt 0.700000 0.625000
vt 0.600000 0.625000
vt 0.600000 0.500000
vt 0.700000 0.750000
vt 0.700000 0.875000
vt 0.600000 0.875000
vt 0.600000 0.750000
vt 0.700000 0.125000
vt 0.600000 0.125000
vt 0.650000 1.000000
vt 0.650000 0.000000
vt 0.500000 0.250000
vt 0.500000 0.125000
vt 0.500000 0.500000
vt 0.500000 0.375000
vt 0.500000 0.750000
vt 0.500000 0.625000
vt 0.550000 1.000000
vt 0.500000 0.875000
vt 0.550000 0.000000
vt 0.400000 0.750000
vt 0.400000 0.625000
vt 0.450000 1.000000
vt 0.400000 0.875000
vt 0.450000 0.000000
vt 0.400000 0.125000
vt 0.400000 0.375000
vt 0.400000 0.250000
vt 0.400000 0.500000
vt 0.350000 0.000000
vt 0.300000 0.125000
vt 0.300000 0.375000
vt 0.300000 0.250000
vt 0.300000 0.625000
vt 0.300000 0.500000
vt 0.300000 0.875000
vt 0.300000 0.750000
vt 0.350000 1.000000
vt 0.200000 0.875000
vt 0.200000 0.750000
vt 0.200000 0.250000
vt 0.200000 0.125000
vt 0.200000 0.500000
vt 0.200000 0.375000
vt 0.200000 0.625000
vt 0.250000 1.000000
vt 0.250000 0.000000
vt 0.100000 0.250000
vt 0.100000 0.125000
vt 0.100000 0.500000
vt 0.100000 0.375000
vt 0.100000 0.750000
vt 0.100000 0.625000
vt 0.150000 1.000000
vt 0.100000 0.875000
vt 0.150000 0.000000
vt 0.050000 1.000000
vt 0.000000 0.875000
vt 0.050000 0.000000
vt 0.000000 0.125000
vt 0.000000 0.375000
vt 0.000000 0.250000
vt 0.000000 0.625000
vt 0.000000 0.500000
vt 0.000000 0.750000
vt 1.000000 0.250000
vt 1.000000 0.375000
vt 0.900000 0.375000
vt 0.900000 0.250000
vt 1.000000 0.500000
vt 1.000000 0.625000
vt 0.900000 0.625000
vt 0.900000 0.500000
vt 1.000000 0.750000
vt 1.000000 0.875000
vt 0.900000 0.875000
vt 0.900000 0.750000
vt 1.000000 0.125000
vt 0.900000 0.125000
vt 0.950000 1.000000
vt 0.950000 0.000000
vt 0.800000 0.250000
vt 0.800000 0.125000
vt 0.800000 0.500000
vt 0.800000 0.375000
vt 0.800000 0.750000
vt 0.800000 0.625000
vt 0.850000 1.000000
vt 0.800000 0.875000
vt 0.850000 0.000000
vt 0.750000 1.000000
vt 0.750000 0.000000
s 1
f 71/1/1 70/2/2 6/3/3 7/4/4
f 69/5/5 68/6/6 4/7/7 5/8/8
f 1/9/9 67/10/10 2/11/11 3/12/12
f 72/13/13 71/1/1 7/4/4 8/14/14
f 70/2/2 69/5/5 5/8/8 6/3/3
f 68/6/6 1/9/9 3/12/12 4/7/7
f 67/10/10 59/15/15 2/11/11
f 51/16/16 72/13/13 8/14/14
f 8/14/14 7/4/4 14/17/17 15/18/18
f 6/3/3 5/8/8 12/19/19 13/20/20
f 4/7/7 3/12/12 10/21/21 11/22/22
f 2/11/11 59/23/15 9/24/23
f 51/25/16 8/14/14 15/18/18
f 7/4/4 6/3/3 13/20/20 14/17/17
f 5/8/8 4/7/7 11/22/22 12/19/19
f 3/12/12 2/11/11 9/24/23 10/21/21
f 11/22/22 10/21/21 17/26/24 18/27/25
f 9/24/23 59/28/15 16/29/26
f 51/30/16 15/18/18 22/31/27
f 14/17/17 13/20/20 20/32/28 21/33/29
f 12/19/19 11/22/22 18/27/25 19/34/30
f 10/21/21 9/24/23 16/29/26 17/26/24
f 15/18/18 14/17/17 21/33/29 22/31/27
f 13/20/20 12/19/19 19/34/30 20/32/28
f 51/35/16 22/31/27 29/36/31
f 21/33/29 20/32/28 27/37/32 28/38/33
f 19/34/30 18/27/25 25/39/34 26/40/35
f 17/26/24 16/29/26 23/41/36 24/42/37
f 22/31/27 21/33/29 28/38/33 29/36/31
f 20/32/28 19/34/30 26/40/35 27/37/32
f 18/27/25 17/26/24 24/42/37 25/39/34
f 16/29/26 59/43/15 23/41/36
f 24/42/37 23/41/36 30/44/38 31/45/39
f 29/36/31 28/38/33 35/46/40 36/47/41
f 27/37/32 26/40/35 33/48/42 34/49/43
f 25/39/34 24/42/37 31/45/39 32/50/44
f 23/41/36 59/51/15 30/44/38
f 51/52/16 29/36/31 36/47/41
f 28/38/33 27/37/32 34/49/43 35/46/40
f 26/40/35 25/39/34 32/50/44 33/48/42
f 36/47/41 35/46/40 42/53/45 43/54/46
f 34/49/43 33/48/42 40/55/47 41/56/48
f 32/50/44 31/45/39 38/57/49 39/58/50
f 30/44/38 59/59/15 37/60/51
f 51/61/16 36/47/41 43/54/46
f 35/46/40 34/49/43 41/56/48 42/53/45
f 33/48/42 32/50/44 39/58/50 40/55/47
f 31/45/39 30/44/38 37/60/51 38/57/49
f 37/60/51 59/62/15 44/63/52
f 51/64/16 43/54/46 50/65/53
f 42/53/45 41/56/48 48/66/54 49/67/55
f 40/55/47 39/58/50 46/68/56 47/69/57
f 38/57/49 37/60/51 44/63/52 45/70/58
f 43/54/46 42/53/45 49/67/55 50/65/53
f 41/56/48 40/55/47 47/69/57 48/66/54
f 39/58/50 38/57/49 45/70/58 46/68/56
f 49/71/55 48/72/54 56/73/59 57/74/60
f 47/75/57 46/76/56 54/77/61 55/78/62
f 45/79/58 44/80/52 52/81/63 53/82/64
f 50/83/53 49/71/55 57/74/60 58/84/65
f 48/72/54 47/75/57 55/78/62 56/73/59
f 46/76/56 45/79/58 53/82/64 54/77/61
f 44/80/52 59/85/15 52/81/63
f 51/86/16 50/83/53 58/84/65
f 58/84/65 57/74/60 65/87/66 66/88/67
f 56/73/59 55/78/62 63/89/68 64/90/69
f 54/77/61 53/82/64 61/91/70 62/92/71
f 52/81/63 59/93/15 60/94/72
f 51/95/16 58/84/65 66/88/67
f 57/74/60 56/73/59 64/90/69 65/87/66
f 55/78/62 54/77/61 62/92/71 63/89/68
f 53/82/64 52/81/63 60/94/72 61/91/70
f 64/90/69 63/89/68 69/5/5 70/2/2
f 62/92/71 61/91/70 1/9/9 68/6/6
f 60/94/72 59/96/15 67/10/10
f 51/97/16 66/88/67 72/13/13
f 65/87/66 64/90/69 70/2/2 71/1/1
f 63/89/68 62/92/71 68/6/6 69/5/5
f 61/91/70 60/94/72 67/10/10 1/9/9
f 66/88/67 65/87/66 71/1/1 72/13/13
