# Blender 4.2.0
# www.blender.org
o Sphere
v 0.000000 2.996105 -0.382683
v 0.000000 2.293119 -0.707107
v 0.000000 -0.000000 -1.000000
v 0.000000 -1.241027 -0.923880
v 0.000000 -2.293119 -0.707107
v 0.000000 -2.996105 -0.382683
v 0.331414 2.996105 -0.191342
v 0.612372 2.293119 -0.353553
v 0.800103 1.241027 -0.461940
v 0.866025 -0.000000 -0.500000
v 0.800103 -1.241027 -0.461940
v 0.612372 -2.293119 -0.353553
v 0.331414 -2.996105 -0.191342
v 0.331414 2.996105 0.191342
v 0.612372 2.293119 0.353553
v 0.800103 1.241027 0.461940
v 0.866025 0.000000 0.500000
v 0.800103 -1.241027 0.461940
v 0.612372 -2.293119 0.353553
v 0.331414 -2.996105 0.191342
v 0.000000 2.996105 0.382683
v 0.000000 2.293119 0.707107
v 0.000000 1.241027 0.923880
v 0.000000 0.000000 1.000000
v 0.000000 -1.241027 0.923880
v 0.000000 -2.293119 0.707107
v 0.000000 -2.996105 0.382683
v 0.000000 -3.242961 0.000000
v 0.000000 3.242961 -0.000000
v -0.331414 2.996105 0.191342
v -0.612373 2.293119 0.353553
v -0.800103 1.241027 0.461940
v -0.866026 0.000000 0.500000
v -0.800103 -1.241027 0.461940
v -0.612373 -2.293119 0.353553
v -0.331414 -2.996105 0.191342
v -0.331414 2.996105 -0.191342
v -0.612372 2.293119 -0.353554
v -0.800103 1.241027 -0.461940
v -0.866025 -0.000000 -0.500000
v -0.800103 -1.241027 -0.461940
v -0.612372 -2.293119 -0.353554
v -0.331414 -2.996105 -0.191342
v 0.000000 1.241027 -0.923880
vn -0.0000 0.1290 -0.9916
vn -0.0000 0.3021 -0.9533
vn 0.8256 0.3021 -0.4766
vn 0.8588 0.1290 -0.4958
vn -0.0000 0.6142 -0.7891
vn -0.0000 1.0000 -0.0000
vn 0.6834 0.6142 -0.3946
vn -0.0000 -1.0000 -0.0000
vn -0.0000 -0.6142 -0.7891
vn 0.6834 -0.6142 -0.3946
vn -0.0000 -0.3021 -0.9533
vn -0.0000 -0.1290 -0.9916
vn 0.8588 -0.1290 -0.4958
vn 0.8256 -0.3021 -0.4766
vn -0.0000 -0.0000 -1.0000
vn 0.8660 -0.0000 -0.5000
vn 0.8588 -0.1290 0.4958
vn 0.8256 -0.3021 0.4766
vn 0.8588 0.1290 0.4958
vn 0.8660 -0.0000 0.5000
vn 0.6834 0.6142 0.3946
vn 0.8256 0.3021 0.4766
vn 0.6834 -0.6142 0.3946
vn -0.0000 -0.3021 0.9533
vn -0.0000 -0.6142 0.7891
vn -0.0000 -0.0000 1.0000
vn -0.0000 -0.1290 0.9916
vn -0.0000 0.3021 0.9533
vn -0.0000 0.1290 0.9916
vn -0.0000 0.6142 0.7891
vn -0.8660 -0.0000 0.5000
vn -0.8588 -0.1290 0.4958
vn -0.8256 0.3021 0.4766
vn -0.8588 0.1290 0.4958
vn -0.6834 0.6142 0.3946
vn -0.6834 -0.6142 0.3946
vn -0.8256 -0.3021 0.4766
vn -0.6834 -0.6142 -0.3946
vn -0.8588 -0.1290 -0.4958
vn -0.8256 -0.3021 -0.4766
vn -0.8588 0.1290 -0.4958
vn -0.8660 -0.0000 -0.5000
vn -0.6834 0.6142 -0.3946
vn -0.8256 0.3021 -0.4766
vt 0.666667 0.625000
vt 0.666667 0.750000
vt 0.500000 0.750000
vt 0.500000 0.625000
vt 0.666667 0.875000
vt 0.583333 1.000000
vt 0.500000 0.875000
vt 0.583333 0.000000
vt 0.666667 0.125000
vt 0.500000 0.125000
vt 0.666667 0.250000
vt 0.666667 0.375000
vt 0.500000 0.375000
vt 0.500000 0.250000
vt 0.666667 0.500000
vt 0.500000 0.500000
vt 0.333333 0.375000
vt 0.333333 0.250000
vt 0.333333 0.625000
vt 0.333333 0.500000
vt 0.333333 0.875000
vt 0.333333 0.750000
vt 0.333333 0.125000
vt 0.416667 1.000000
vt 0.416667 0.000000
vt 0.166667 0.250000
vt 0.166667 0.125000
vt 0.166667 0.500000
vt 0.166667 0.375000
vt 0.166667 0.750000
vt 0.166667 0.625000
vt 0.250000 1.000000
vt 0.166667 0.875000
vt 0.250000 0.000000
vt 0.000000 0.500000
vt 0.000000 0.375000
vt 0.000000 0.750000
vt 0.000000 0.625000
vt 0.083333 1.000000
vt 0.000000 0.875000
vt 0.083333 0.000000
vt 0.000000 0.125000
vt 0.000000 0.250000
vt 0.916667 0.000000
vt 1.000000 0.125000
vt 0.833333 0.125000
vt 1.000000 0.250000
vt 1.000000 0.375000
vt 0.833333 0.375000
vt 0.833333 0.250000
vt 1.000000 0.500000
vt 1.000000 0.625000
vt 0.833333 0.625000
vt 0.833333 0.500000
vt 1.000000 0.750000
vt 1.000000 0.875000
vt 0.833333 0.875000
vt 0.833333 0.750000
vt 0.916667 1.000000
vt 0.750000 1.000000
vt 0.750000 0.000000
s 1
f 44/1/1 2/2/2 8/3/3 9/4/4
f 1/5/5 29/6/6 7/7/7
f 28/8/8 6/9/9 13/10/10
f 5/11/11 4/12/12 11/13/13 12/14/14
f 3/15/15 44/1/1 9/4/4 10/16/16
f 2/2/2 1/5/5 7/7/7 8/3/3
f 6/9/9 5/11/11 12/14/14 13/10/10
f 4/12/12 3/15/15 10/16/16 11/13/13
f 12/14/14 11/13/13 18/17/17 19/18/18
f 10/16/16 9/4/4 16/19/19 17/20/20
f 8/3/3 7/7/7 14/21/21 15/22/22
f 13/10/10 12/14/14 19/18/18 20/23/23
f 11/13/13 10/16/16 17/20/20 18/17/17
f 9/4/4 8/3/3 15/22/22 16/19/19
f 7/7/7 29/24/6 14/21/21
f 28/25/8 13/10/10 20/23/23
f 20/23/23 19/18/18 26/26/24 27/27/25
f 18/17/17 17/20/20 24/28/26 25/29/27
f 16/19/19 15/22/22 22/30/28 23/31/29
f 14/21/21 29/32/6 21/33/30
f 28/34/8 20/23/23 27/27/25
f 19/18/18 18/17/17 25/29/27 26/26/24
f 17/20/20 16/19/19 23/31/29 24/28/26
f 15/22/22 14/21/21 21/33/30 22/30/28
f 25/29/27 24/28/26 33/35/31 34/36/32
f 23/31/29 22/30/28 31/37/33 32/38/34
f 21/33/30 29/39/6 30/40/35
f 28/41/8 27/27/25 36/42/36
f 26/26/24 25/29/27 34/36/32 35/43/37
f 24/28/26 23/31/29 32/38/34 33/35/31
f 22/30/28 21/33/30 30/40/35 31/37/33
f 27/27/25 26/26/24 35/43/37 36/42/36
f 28/44/8 36/45/36 43/46/38
f 35/47/37 34/48/32 41/49/39 42/50/40
f 33/51/31 32/52/34 39/53/41 40/54/42
f 31/55/33 30/56/35 37/57/43 38/58/44
f 36/45/36 35/47/37 42/50/40 43/46/38
f 34/48/32 33/51/31 40/54/42 41/49/39
f 32/52/34 31/55/33 38/58/44 39/53/41
f 30/56/35 29/59/6 37/57/43
f 40/54/42 39/53/41 44/1/1 3/15/15
f 38/58/44 37/57/43 1/5/5 2/2/2
f 43/46/38 42/50/40 5/11/11 6/9/9
f 41/49/39 40/54/42 3/15/15 4/12/12
f 39/53/41 38/58/44 2/2/2 44/1/1
f 37/57/43 29/60/6 1/5/5
f 28/61/8 43/46/38 6/9/9
f 42/50/40 41/49/39 4/12/12 5/11/11
