# Blender 4.2.0
# www.blender.org
o Sphere
v 0.000000 2.386105 -2.951417
v 0.000000 1.641110 -1.740495
v 0.000000 -0.000000 -1.000000
v 0.331414 2.576870 -2.936573
v 0.612372 1.940689 -1.552739
v 0.800103 1.184928 -0.821212
v 0.866025 -0.000000 -0.500000
v 0.331414 2.958400 -2.906885
v 0.612372 2.539848 -1.177227
v 0.800103 1.490301 0.050741
v 0.866025 0.000000 0.500000
v 0.000000 3.149165 -2.892040
v 0.000000 2.839427 -0.989471
v 0.000000 1.642988 0.486717
v 0.000000 0.000000 1.000000
v 0.000000 3.124244 -4.364283
v -0.331414 2.958400 -2.906885
v -0.612373 2.539848 -1.177227
v -0.800103 1.490301 0.050740
v -0.866026 0.000000 0.500000
v -0.331414 2.576870 -2.936573
v -0.612372 1.940689 -1.552739
v -0.800103 1.184928 -0.821212
v -0.866025 -0.000000 -0.500000
v 0.000000 1.032241 -1.257188
v 0.000000 -2.386105 -2.951417
v 0.000000 -1.641110 -1.740495
v 0.331414 -2.576870 -2.936573
v 0.612372 -1.940689 -1.552739
v 0.800103 -1.184928 -0.821212
v 0.331414 -2.958400 -2.906885
v 0.612372 -2.539848 -1.177227
v 0.800103 -1.490301 0.050741
v 0.000000 -3.149165 -2.892040
v 0.000000 -2.839427 -0.989471
v 0.000000 -1.642988 0.486717
v 0.000000 -3.124244 -4.364283
v -0.331414 -2.958400 -2.906885
v -0.612373 -2.539848 -1.177227
v -0.800103 -1.490301 0.050740
v -0.331414 -2.576870 -2.936573
v -0.612372 -1.940689 -1.552739
v -0.800103 -1.184928 -0.821212
v 0.000000 -1.032241 -1.257188
vn -0.0000 -0.4475 -0.8943
vn -0.0000 -0.7451 -0.6670
vn 0.8796 -0.2823 -0.3830
vn 0.8978 -0.1220 -0.4231
vn -0.0000 -0.8699 -0.4932
vn -0.0000 0.2317 -0.9728
vn 0.8449 -0.4051 -0.3492
vn -0.0000 -0.0000 -1.0000
vn 0.9041 -0.0000 -0.4272
vn 0.8248 0.3615 0.4348
vn 0.8351 -0.0000 0.5501
vn 0.8430 0.5340 -0.0655
vn 0.8179 0.5508 0.1661
vn -0.0000 0.9114 0.4115
vn -0.0000 0.5508 0.8347
vn -0.0000 0.9975 0.0704
vn -0.0000 -0.0000 1.0000
vn -0.8180 0.5508 0.1661
vn -0.8248 0.3615 0.4348
vn -0.8430 0.5340 -0.0655
vn -0.8351 -0.0000 0.5501
vn -0.8978 -0.1220 -0.4231
vn -0.9041 -0.0000 -0.4272
vn -0.8449 -0.4051 -0.3492
vn -0.8796 -0.2823 -0.3830
vn -0.0000 0.4475 -0.8943
vn 0.8978 0.1220 -0.4231
vn 0.8796 0.2823 -0.3830
vn -0.0000 0.7451 -0.6670
vn -0.0000 0.8699 -0.4932
vn 0.8449 0.4051 -0.3492
vn -0.0000 -0.2317 -0.9728
vn 0.8248 -0.3615 0.4348
vn 0.8179 -0.5508 0.1661
vn 0.8430 -0.5340 -0.0655
vn -0.0000 -0.5508 0.8347
vn -0.0000 -0.9114 0.4115
vn -0.0000 -0.9975 0.0704
vn -0.8248 -0.3615 0.4348
vn -0.8180 -0.5508 0.1661
vn -0.8430 -0.5340 -0.0655
vn -0.8978 0.1220 -0.4231
vn -0.8796 0.2823 -0.3830
vn -0.8449 0.4051 -0.3492
vt 0.666667 0.625000
vt 0.666667 0.750000
vt 0.500000 0.750000
vt 0.500000 0.625000
vt 0.666667 0.875000
vt 0.583333 1.000000
vt 0.500000 0.875000
vt 0.666667 0.500000
vt 0.500000 0.500000
vt 0.333333 0.625000
vt 0.333333 0.500000
vt 0.333333 0.875000
vt 0.333333 0.750000
vt 0.416667 1.000000
vt 0.166667 0.750000
vt 0.166667 0.625000
vt 0.250000 1.000000
vt 0.166667 0.875000
vt 0.166667 0.500000
vt 0.000000 0.750000
vt 0.000000 0.625000
vt 0.083333 1.000000
vt 0.000000 0.875000
vt 0.000000 0.500000
vt 1.000000 0.500000
vt 1.000000 0.625000
vt 0.833333 0.625000
vt 0.833333 0.500000
vt 1.000000 0.750000
vt 1.000000 0.875000
vt 0.833333 0.875000
vt 0.833333 0.750000
vt 0.916667 1.000000
vt 0.750000 1.000000
s 1
f 25/1/1 2/2/2 5/3/3 6/4/4
f 1/5/5 16/6/6 4/7/7
f 3/8/8 25/1/1 6/4/4 7/9/9
f 2/2/2 1/5/5 4/7/7 5/3/3
f 7/9/9 6/4/4 10/10/10 11/11/11
f 5/3/3 4/7/7 8/12/12 9/13/13
f 6/4/4 5/3/3 9/13/13 10/10/10
f 4/7/7 16/14/6 8/12/12
f 10/10/10 9/13/13 13/15/14 14/16/15
f 8/12/12 16/17/6 12/18/16
f 11/11/11 10/10/10 14/16/15 15/19/17
f 9/13/13 8/12/12 12/18/16 13/15/14
f 14/16/15 13/15/14 18/20/18 19/21/19
f 12/18/16 16/22/6 17/23/20
f 15/19/17 14/16/15 19/21/19 20/24/21
f 13/15/14 12/18/16 17/23/20 18/20/18
f 20/25/21 19/26/19 23/27/22 24/28/23
f 18/29/18 17/30/20 21/31/24 22/32/25
f 19/26/19 18/29/18 22/32/25 23/27/22
f 17/30/20 16/33/6 21/31/24
f 24/28/23 23/27/22 25/1/1 3/8/8
f 22/32/25 21/31/24 1/5/5 2/2/2
f 23/27/22 22/32/25 2/2/2 25/1/1
f 21/31/24 16/34/6 1/5/5
f 44/1/26 30/4/27 29/3/28 27/2/29
f 26/5/30 28/7/31 37/6/32
f 3/8/8 7/9/9 30/4/27 44/1/26
f 27/2/29 29/3/28 28/7/31 26/5/30
f 7/9/9 11/11/11 33/10/33 30/4/27
f 29/3/28 32/13/34 31/12/35 28/7/31
f 30/4/27 33/10/33 32/13/34 29/3/28
f 28/7/31 31/12/35 37/14/32
f 33/10/33 36/16/36 35/15/37 32/13/34
f 31/12/35 34/18/38 37/17/32
f 11/11/11 15/19/17 36/16/36 33/10/33
f 32/13/34 35/15/37 34/18/38 31/12/35
f 36/16/36 40/21/39 39/20/40 35/15/37
f 34/18/38 38/23/41 37/22/32
f 15/19/17 20/24/21 40/21/39 36/16/36
f 35/15/37 39/20/40 38/23/41 34/18/38
f 20/25/21 24/28/23 43/27/42 40/26/39
f 39/29/40 42/32/43 41/31/44 38/30/41
f 40/26/39 43/27/42 42/32/43 39/29/40
f 38/30/41 41/31/44 37/33/32
f 24/28/23 3/8/8 44/1/26 43/27/42
f 42/32/43 27/2/29 26/5/30 41/31/44
f 43/27/42 44/1/26 27/2/29 42/32/43
f 41/31/44 26/5/30 37/34/32
